  0
SECTION
  2
BLOCKS
  0
ENDSEC
  0
SECTION
  2
ENTITIES
  0
LINE
  8
0
 10
51.5
 20
26.5
 11
-51.5
 21
26.5
  0
LINE
  8
0
 10
-51.5
 20
26.5
 11
-51.5
 21
-26.5
  0
LINE
  8
0
 10
-51.5
 20
-26.5
 11
51.5
 21
-26.5
  0
LINE
  8
0
 10
51.5
 20
-26.5
 11
51.5
 21
26.5
  0
LINE
  8
0
 10
18.7
 20
-9.89999
 11
18.6372
 21
-9.89803
  0
LINE
  8
0
 10
18.6372
 20
-9.89803
 11
18.5747
 21
-9.89211
  0
LINE
  8
0
 10
18.5747
 20
-9.89211
 11
18.5126
 21
-9.88228
  0
LINE
  8
0
 10
18.5126
 20
-9.88228
 11
18.4513
 21
-9.86858
  0
LINE
  8
0
 10
18.4513
 20
-9.86858
 11
18.391
 21
-9.85104
  0
LINE
  8
0
 10
18.391
 20
-9.85104
 11
18.3319
 21
-9.82977
  0
LINE
  8
0
 10
18.3319
 20
-9.82977
 11
18.2742
 21
-9.80482
  0
LINE
  8
0
 10
18.2742
 20
-9.80482
 11
18.2182
 21
-9.77631
  0
LINE
  8
0
 10
18.2182
 20
-9.77631
 11
18.1642
 21
-9.74432
  0
LINE
  8
0
 10
18.1642
 20
-9.74432
 11
18.1122
 21
-9.70901
  0
LINE
  8
0
 10
18.1122
 20
-9.70901
 11
18.0626
 21
-9.6705
  0
LINE
  8
0
 10
18.0626
 20
-9.6705
 11
18.0154
 21
-9.62897
  0
LINE
  8
0
 10
18.0154
 20
-9.62897
 11
17.971
 21
-9.58453
  0
LINE
  8
0
 10
17.971
 20
-9.58453
 11
17.9295
 21
-9.53741
  0
LINE
  8
0
 10
17.9295
 20
-9.53741
 11
17.891
 21
-9.48778
  0
LINE
  8
0
 10
17.891
 20
-9.48778
 11
17.8557
 21
-9.43582
  0
LINE
  8
0
 10
17.8557
 20
-9.43582
 11
17.8237
 21
-9.38174
  0
LINE
  8
0
 10
17.8237
 20
-9.38174
 11
17.7952
 21
-9.32578
  0
LINE
  8
0
 10
17.7952
 20
-9.32578
 11
17.7702
 21
-9.26811
  0
LINE
  8
0
 10
17.7702
 20
-9.26811
 11
17.7489
 21
-9.20901
  0
LINE
  8
0
 10
17.7489
 20
-9.20901
 11
17.7314
 21
-9.14868
  0
LINE
  8
0
 10
17.7314
 20
-9.14868
 11
17.7177
 21
-9.08737
  0
LINE
  8
0
 10
17.7177
 20
-9.08737
 11
17.7079
 21
-9.02533
  0
LINE
  8
0
 10
17.7079
 20
-9.02533
 11
17.702
 21
-8.96278
  0
LINE
  8
0
 10
17.702
 20
-8.96278
 11
17.7
 21
-8.89999
  0
LINE
  8
0
 10
17.7
 20
-8.89999
 11
17.7
 21
-5.5
  0
LINE
  8
0
 10
17.7
 20
-5.5
 11
17.702
 21
-5.43721
  0
LINE
  8
0
 10
17.702
 20
-5.43721
 11
17.7079
 21
-5.37466
  0
LINE
  8
0
 10
17.7079
 20
-5.37466
 11
17.7177
 21
-5.31261
  0
LINE
  8
0
 10
17.7177
 20
-5.31261
 11
17.7314
 21
-5.2513
  0
LINE
  8
0
 10
17.7314
 20
-5.2513
 11
17.7489
 21
-5.19098
  0
LINE
  8
0
 10
17.7489
 20
-5.19098
 11
17.7702
 21
-5.13187
  0
LINE
  8
0
 10
17.7702
 20
-5.13187
 11
17.7952
 21
-5.07422
  0
LINE
  8
0
 10
17.7952
 20
-5.07422
 11
17.8237
 21
-5.01823
  0
LINE
  8
0
 10
17.8237
 20
-5.01823
 11
17.8557
 21
-4.96417
  0
LINE
  8
0
 10
17.8557
 20
-4.96417
 11
17.891
 21
-4.9122
  0
LINE
  8
0
 10
17.891
 20
-4.9122
 11
17.9295
 21
-4.86256
  0
LINE
  8
0
 10
17.9295
 20
-4.86256
 11
17.971
 21
-4.81544
  0
LINE
  8
0
 10
17.971
 20
-4.81544
 11
18.0154
 21
-4.77103
  0
LINE
  8
0
 10
18.0154
 20
-4.77103
 11
18.0626
 21
-4.72948
  0
LINE
  8
0
 10
18.0626
 20
-4.72948
 11
18.1122
 21
-4.69098
  0
LINE
  8
0
 10
18.1122
 20
-4.69098
 11
18.1642
 21
-4.65567
  0
LINE
  8
0
 10
18.1642
 20
-4.65567
 11
18.2182
 21
-4.62369
  0
LINE
  8
0
 10
18.2182
 20
-4.62369
 11
18.2742
 21
-4.59517
  0
LINE
  8
0
 10
18.2742
 20
-4.59517
 11
18.3319
 21
-4.57022
  0
LINE
  8
0
 10
18.3319
 20
-4.57022
 11
18.391
 21
-4.54893
  0
LINE
  8
0
 10
18.391
 20
-4.54893
 11
18.4513
 21
-4.5314
  0
LINE
  8
0
 10
18.4513
 20
-4.5314
 11
18.5126
 21
-4.5177
  0
LINE
  8
0
 10
18.5126
 20
-4.5177
 11
18.5747
 21
-4.50787
  0
LINE
  8
0
 10
18.5747
 20
-4.50787
 11
18.6372
 21
-4.50197
  0
LINE
  8
0
 10
18.6372
 20
-4.50197
 11
18.7
 21
-4.5
  0
LINE
  8
0
 10
18.7
 20
-4.5
 11
25.4
 21
-4.5
  0
LINE
  8
0
 10
25.4
 20
-4.5
 11
25.4628
 21
-4.50197
  0
LINE
  8
0
 10
25.4628
 20
-4.50197
 11
25.5253
 21
-4.50787
  0
LINE
  8
0
 10
25.5253
 20
-4.50787
 11
25.5874
 21
-4.5177
  0
LINE
  8
0
 10
25.5874
 20
-4.5177
 11
25.6487
 21
-4.5314
  0
LINE
  8
0
 10
25.6487
 20
-4.5314
 11
25.709
 21
-4.54893
  0
LINE
  8
0
 10
25.709
 20
-4.54893
 11
25.7681
 21
-4.57022
  0
LINE
  8
0
 10
25.7681
 20
-4.57022
 11
25.8258
 21
-4.59517
  0
LINE
  8
0
 10
25.8258
 20
-4.59517
 11
25.8817
 21
-4.62369
  0
LINE
  8
0
 10
25.8817
 20
-4.62369
 11
25.9358
 21
-4.65567
  0
LINE
  8
0
 10
25.9358
 20
-4.65567
 11
25.9878
 21
-4.69098
  0
LINE
  8
0
 10
25.9878
 20
-4.69098
 11
26.0374
 21
-4.72948
  0
LINE
  8
0
 10
26.0374
 20
-4.72948
 11
26.0845
 21
-4.77103
  0
LINE
  8
0
 10
26.0845
 20
-4.77103
 11
26.129
 21
-4.81544
  0
LINE
  8
0
 10
26.129
 20
-4.81544
 11
26.1705
 21
-4.86256
  0
LINE
  8
0
 10
26.1705
 20
-4.86256
 11
26.209
 21
-4.9122
  0
LINE
  8
0
 10
26.209
 20
-4.9122
 11
26.2443
 21
-4.96417
  0
LINE
  8
0
 10
26.2443
 20
-4.96417
 11
26.2763
 21
-5.01823
  0
LINE
  8
0
 10
26.2763
 20
-5.01823
 11
26.3048
 21
-5.07422
  0
LINE
  8
0
 10
26.3048
 20
-5.07422
 11
26.3298
 21
-5.13187
  0
LINE
  8
0
 10
26.3298
 20
-5.13187
 11
26.351
 21
-5.19098
  0
LINE
  8
0
 10
26.351
 20
-5.19098
 11
26.3686
 21
-5.2513
  0
LINE
  8
0
 10
26.3686
 20
-5.2513
 11
26.3823
 21
-5.31261
  0
LINE
  8
0
 10
26.3823
 20
-5.31261
 11
26.3921
 21
-5.37466
  0
LINE
  8
0
 10
26.3921
 20
-5.37466
 11
26.398
 21
-5.43721
  0
LINE
  8
0
 10
26.398
 20
-5.43721
 11
26.4
 21
-5.5
  0
LINE
  8
0
 10
26.4
 20
-5.5
 11
26.4
 21
-8.89999
  0
LINE
  8
0
 10
26.4
 20
-8.89999
 11
26.398
 21
-8.96278
  0
LINE
  8
0
 10
26.398
 20
-8.96278
 11
26.3921
 21
-9.02533
  0
LINE
  8
0
 10
26.3921
 20
-9.02533
 11
26.3823
 21
-9.08737
  0
LINE
  8
0
 10
26.3823
 20
-9.08737
 11
26.3686
 21
-9.14868
  0
LINE
  8
0
 10
26.3686
 20
-9.14868
 11
26.351
 21
-9.20901
  0
LINE
  8
0
 10
26.351
 20
-9.20901
 11
26.3298
 21
-9.26811
  0
LINE
  8
0
 10
26.3298
 20
-9.26811
 11
26.3048
 21
-9.32578
  0
LINE
  8
0
 10
26.3048
 20
-9.32578
 11
26.2763
 21
-9.38174
  0
LINE
  8
0
 10
26.2763
 20
-9.38174
 11
26.2443
 21
-9.43582
  0
LINE
  8
0
 10
26.2443
 20
-9.43582
 11
26.209
 21
-9.48778
  0
LINE
  8
0
 10
26.209
 20
-9.48778
 11
26.1705
 21
-9.53741
  0
LINE
  8
0
 10
26.1705
 20
-9.53741
 11
26.129
 21
-9.58453
  0
LINE
  8
0
 10
26.129
 20
-9.58453
 11
26.0845
 21
-9.62897
  0
LINE
  8
0
 10
26.0845
 20
-9.62897
 11
26.0374
 21
-9.6705
  0
LINE
  8
0
 10
26.0374
 20
-9.6705
 11
25.9878
 21
-9.70901
  0
LINE
  8
0
 10
25.9878
 20
-9.70901
 11
25.9358
 21
-9.74432
  0
LINE
  8
0
 10
25.9358
 20
-9.74432
 11
25.8817
 21
-9.77631
  0
LINE
  8
0
 10
25.8817
 20
-9.77631
 11
25.8258
 21
-9.80482
  0
LINE
  8
0
 10
25.8258
 20
-9.80482
 11
25.7681
 21
-9.82977
  0
LINE
  8
0
 10
25.7681
 20
-9.82977
 11
25.709
 21
-9.85104
  0
LINE
  8
0
 10
25.709
 20
-9.85104
 11
25.6487
 21
-9.86858
  0
LINE
  8
0
 10
25.6487
 20
-9.86858
 11
25.5874
 21
-9.88228
  0
LINE
  8
0
 10
25.5874
 20
-9.88228
 11
25.5253
 21
-9.89211
  0
LINE
  8
0
 10
25.5253
 20
-9.89211
 11
25.4628
 21
-9.89803
  0
LINE
  8
0
 10
25.4628
 20
-9.89803
 11
25.4
 21
-9.89999
  0
LINE
  8
0
 10
25.4
 20
-9.89999
 11
18.7
 21
-9.89999
  0
LINE
  8
0
 10
-27.2628
 20
-8.49802
 11
-27.3253
 21
-8.49211
  0
LINE
  8
0
 10
-27.3253
 20
-8.49211
 11
-27.3874
 21
-8.48228
  0
LINE
  8
0
 10
-27.3874
 20
-8.48228
 11
-27.4487
 21
-8.46858
  0
LINE
  8
0
 10
-27.4487
 20
-8.46858
 11
-27.509
 21
-8.45105
  0
LINE
  8
0
 10
-27.509
 20
-8.45105
 11
-27.5681
 21
-8.42976
  0
LINE
  8
0
 10
-27.5681
 20
-8.42976
 11
-27.6258
 21
-8.40482
  0
LINE
  8
0
 10
-27.6258
 20
-8.40482
 11
-27.6817
 21
-8.3763
  0
LINE
  8
0
 10
-27.6817
 20
-8.3763
 11
-27.7358
 21
-8.34431
  0
LINE
  8
0
 10
-27.7358
 20
-8.34431
 11
-27.7878
 21
-8.30901
  0
LINE
  8
0
 10
-27.7878
 20
-8.30901
 11
-27.8374
 21
-8.27051
  0
LINE
  8
0
 10
-27.8374
 20
-8.27051
 11
-27.8845
 21
-8.22896
  0
LINE
  8
0
 10
-27.8845
 20
-8.22896
 11
-27.929
 21
-8.18454
  0
LINE
  8
0
 10
-27.929
 20
-8.18454
 11
-27.9705
 21
-8.13742
  0
LINE
  8
0
 10
-27.9705
 20
-8.13742
 11
-28.009
 21
-8.08778
  0
LINE
  8
0
 10
-28.009
 20
-8.08778
 11
-28.0443
 21
-8.03581
  0
LINE
  8
0
 10
-28.0443
 20
-8.03581
 11
-28.0763
 21
-7.98175
  0
LINE
  8
0
 10
-28.0763
 20
-7.98175
 11
-28.1048
 21
-7.92577
  0
LINE
  8
0
 10
-28.1048
 20
-7.92577
 11
-28.1298
 21
-7.86812
  0
LINE
  8
0
 10
-28.1298
 20
-7.86812
 11
-28.151
 21
-7.80901
  0
LINE
  8
0
 10
-28.151
 20
-7.80901
 11
-28.1686
 21
-7.74869
  0
LINE
  8
0
 10
-28.1686
 20
-7.74869
 11
-28.1823
 21
-7.68738
  0
LINE
  8
0
 10
-28.1823
 20
-7.68738
 11
-28.1921
 21
-7.62532
  0
LINE
  8
0
 10
-28.1921
 20
-7.62532
 11
-28.198
 21
-7.56279
  0
LINE
  8
0
 10
-28.198
 20
-7.56279
 11
-28.2
 21
-7.5
  0
LINE
  8
0
 10
-28.2
 20
-7.5
 11
-28.198
 21
-7.43719
  0
LINE
  8
0
 10
-28.198
 20
-7.43719
 11
-28.1921
 21
-7.37466
  0
LINE
  8
0
 10
-28.1921
 20
-7.37466
 11
-28.1823
 21
-7.31261
  0
LINE
  8
0
 10
-28.1823
 20
-7.31261
 11
-28.1686
 21
-7.2513
  0
LINE
  8
0
 10
-28.1686
 20
-7.2513
 11
-28.151
 21
-7.19098
  0
LINE
  8
0
 10
-28.151
 20
-7.19098
 11
-28.1298
 21
-7.13187
  0
LINE
  8
0
 10
-28.1298
 20
-7.13187
 11
-28.1048
 21
-7.07422
  0
LINE
  8
0
 10
-28.1048
 20
-7.07422
 11
-28.0763
 21
-7.01823
  0
LINE
  8
0
 10
-28.0763
 20
-7.01823
 11
-28.0443
 21
-6.96417
  0
LINE
  8
0
 10
-28.0443
 20
-6.96417
 11
-28.009
 21
-6.9122
  0
LINE
  8
0
 10
-28.009
 20
-6.9122
 11
-27.9705
 21
-6.86256
  0
LINE
  8
0
 10
-27.9705
 20
-6.86256
 11
-27.929
 21
-6.81544
  0
LINE
  8
0
 10
-27.929
 20
-6.81544
 11
-27.8845
 21
-6.77103
  0
LINE
  8
0
 10
-27.8845
 20
-6.77103
 11
-27.8374
 21
-6.72948
  0
LINE
  8
0
 10
-27.8374
 20
-6.72948
 11
-27.7878
 21
-6.69098
  0
LINE
  8
0
 10
-27.7878
 20
-6.69098
 11
-27.7358
 21
-6.65567
  0
LINE
  8
0
 10
-27.7358
 20
-6.65567
 11
-27.6817
 21
-6.62369
  0
LINE
  8
0
 10
-27.6817
 20
-6.62369
 11
-27.6258
 21
-6.59517
  0
LINE
  8
0
 10
-27.6258
 20
-6.59517
 11
-27.5681
 21
-6.57022
  0
LINE
  8
0
 10
-27.5681
 20
-6.57022
 11
-27.509
 21
-6.54893
  0
LINE
  8
0
 10
-27.509
 20
-6.54893
 11
-27.4487
 21
-6.5314
  0
LINE
  8
0
 10
-27.4487
 20
-6.5314
 11
-27.3874
 21
-6.5177
  0
LINE
  8
0
 10
-27.3874
 20
-6.5177
 11
-27.3253
 21
-6.50787
  0
LINE
  8
0
 10
-27.3253
 20
-6.50787
 11
-27.2628
 21
-6.50197
  0
LINE
  8
0
 10
-27.2628
 20
-6.50197
 11
-27.2
 21
-6.5
  0
LINE
  8
0
 10
-27.2
 20
-6.5
 11
-27.1372
 21
-6.50197
  0
LINE
  8
0
 10
-27.1372
 20
-6.50197
 11
-27.0747
 21
-6.50787
  0
LINE
  8
0
 10
-27.0747
 20
-6.50787
 11
-27.0126
 21
-6.5177
  0
LINE
  8
0
 10
-27.0126
 20
-6.5177
 11
-26.9513
 21
-6.5314
  0
LINE
  8
0
 10
-26.9513
 20
-6.5314
 11
-26.891
 21
-6.54893
  0
LINE
  8
0
 10
-26.891
 20
-6.54893
 11
-26.8319
 21
-6.57022
  0
LINE
  8
0
 10
-26.8319
 20
-6.57022
 11
-26.7742
 21
-6.59517
  0
LINE
  8
0
 10
-26.7742
 20
-6.59517
 11
-26.7182
 21
-6.62369
  0
LINE
  8
0
 10
-26.7182
 20
-6.62369
 11
-26.6642
 21
-6.65567
  0
LINE
  8
0
 10
-26.6642
 20
-6.65567
 11
-26.6122
 21
-6.69098
  0
LINE
  8
0
 10
-26.6122
 20
-6.69098
 11
-26.5626
 21
-6.72948
  0
LINE
  8
0
 10
-26.5626
 20
-6.72948
 11
-26.5154
 21
-6.77103
  0
LINE
  8
0
 10
-26.5154
 20
-6.77103
 11
-26.471
 21
-6.81544
  0
LINE
  8
0
 10
-26.471
 20
-6.81544
 11
-26.4295
 21
-6.86256
  0
LINE
  8
0
 10
-26.4295
 20
-6.86256
 11
-26.391
 21
-6.9122
  0
LINE
  8
0
 10
-26.391
 20
-6.9122
 11
-26.3557
 21
-6.96417
  0
LINE
  8
0
 10
-26.3557
 20
-6.96417
 11
-26.3237
 21
-7.01823
  0
LINE
  8
0
 10
-26.3237
 20
-7.01823
 11
-26.2952
 21
-7.07422
  0
LINE
  8
0
 10
-26.2952
 20
-7.07422
 11
-26.2702
 21
-7.13187
  0
LINE
  8
0
 10
-26.2702
 20
-7.13187
 11
-26.2489
 21
-7.19098
  0
LINE
  8
0
 10
-26.2489
 20
-7.19098
 11
-26.2314
 21
-7.2513
  0
LINE
  8
0
 10
-26.2314
 20
-7.2513
 11
-26.2177
 21
-7.31261
  0
LINE
  8
0
 10
-26.2177
 20
-7.31261
 11
-26.2079
 21
-7.37466
  0
LINE
  8
0
 10
-26.2079
 20
-7.37466
 11
-26.202
 21
-7.43719
  0
LINE
  8
0
 10
-26.202
 20
-7.43719
 11
-26.2
 21
-7.5
  0
LINE
  8
0
 10
-26.2
 20
-7.5
 11
-26.202
 21
-7.56279
  0
LINE
  8
0
 10
-26.202
 20
-7.56279
 11
-26.2079
 21
-7.62532
  0
LINE
  8
0
 10
-26.2079
 20
-7.62532
 11
-26.2177
 21
-7.68738
  0
LINE
  8
0
 10
-26.2177
 20
-7.68738
 11
-26.2314
 21
-7.74869
  0
LINE
  8
0
 10
-26.2314
 20
-7.74869
 11
-26.2489
 21
-7.80901
  0
LINE
  8
0
 10
-26.2489
 20
-7.80901
 11
-26.2702
 21
-7.86812
  0
LINE
  8
0
 10
-26.2702
 20
-7.86812
 11
-26.2952
 21
-7.92577
  0
LINE
  8
0
 10
-26.2952
 20
-7.92577
 11
-26.3237
 21
-7.98175
  0
LINE
  8
0
 10
-26.3237
 20
-7.98175
 11
-26.3557
 21
-8.03581
  0
LINE
  8
0
 10
-26.3557
 20
-8.03581
 11
-26.391
 21
-8.08778
  0
LINE
  8
0
 10
-26.391
 20
-8.08778
 11
-26.4295
 21
-8.13742
  0
LINE
  8
0
 10
-26.4295
 20
-8.13742
 11
-26.471
 21
-8.18454
  0
LINE
  8
0
 10
-26.471
 20
-8.18454
 11
-26.5154
 21
-8.22896
  0
LINE
  8
0
 10
-26.5154
 20
-8.22896
 11
-26.5626
 21
-8.27051
  0
LINE
  8
0
 10
-26.5626
 20
-8.27051
 11
-26.6122
 21
-8.30901
  0
LINE
  8
0
 10
-26.6122
 20
-8.30901
 11
-26.6642
 21
-8.34431
  0
LINE
  8
0
 10
-26.6642
 20
-8.34431
 11
-26.7182
 21
-8.3763
  0
LINE
  8
0
 10
-26.7182
 20
-8.3763
 11
-26.7742
 21
-8.40482
  0
LINE
  8
0
 10
-26.7742
 20
-8.40482
 11
-26.8319
 21
-8.42976
  0
LINE
  8
0
 10
-26.8319
 20
-8.42976
 11
-26.891
 21
-8.45105
  0
LINE
  8
0
 10
-26.891
 20
-8.45105
 11
-26.9513
 21
-8.46858
  0
LINE
  8
0
 10
-26.9513
 20
-8.46858
 11
-27.0126
 21
-8.48228
  0
LINE
  8
0
 10
-27.0126
 20
-8.48228
 11
-27.0747
 21
-8.49211
  0
LINE
  8
0
 10
-27.0747
 20
-8.49211
 11
-27.1372
 21
-8.49802
  0
LINE
  8
0
 10
-27.1372
 20
-8.49802
 11
-27.2
 21
-8.5
  0
LINE
  8
0
 10
-27.2
 20
-8.5
 11
-27.2628
 21
-8.49802
  0
ENDSEC
  0
SECTION
  2
OBJECTS
  0
DICTIONARY
  0
ENDSEC
  0
EOF
