  0
SECTION
  2
BLOCKS
  0
ENDSEC
  0
SECTION
  2
ENTITIES
  0
LINE
  8
0
 10
51.5
 20
26.5
 11
-51.5
 21
26.5
  0
LINE
  8
0
 10
-51.5
 20
26.5
 11
-51.5
 21
-26.5
  0
LINE
  8
0
 10
-51.5
 20
-26.5
 11
51.5
 21
-26.5
  0
LINE
  8
0
 10
51.5
 20
-26.5
 11
51.5
 21
26.5
  0
LINE
  8
0
 10
46.635
 20
20.9845
 11
45.76
 21
22.5
  0
LINE
  8
0
 10
45.76
 20
22.5
 11
46.635
 21
24.0155
  0
LINE
  8
0
 10
46.635
 20
24.0155
 11
48.385
 21
24.0155
  0
LINE
  8
0
 10
48.385
 20
24.0155
 11
49.26
 21
22.5
  0
LINE
  8
0
 10
49.26
 20
22.5
 11
48.385
 21
20.9845
  0
LINE
  8
0
 10
48.385
 20
20.9845
 11
46.635
 21
20.9845
  0
LINE
  8
0
 10
-48.385
 20
20.9845
 11
-49.26
 21
22.5
  0
LINE
  8
0
 10
-49.26
 20
22.5
 11
-48.385
 21
24.0155
  0
LINE
  8
0
 10
-48.385
 20
24.0155
 11
-46.635
 21
24.0155
  0
LINE
  8
0
 10
-46.635
 20
24.0155
 11
-45.76
 21
22.5
  0
LINE
  8
0
 10
-45.76
 20
22.5
 11
-46.635
 21
20.9845
  0
LINE
  8
0
 10
-46.635
 20
20.9845
 11
-48.385
 21
20.9845
  0
LINE
  8
0
 10
7.5
 20
7.5
 11
7.5
 21
12.5
  0
LINE
  8
0
 10
7.5
 20
12.5
 11
12.5
 21
12.5
  0
LINE
  8
0
 10
12.5
 20
12.5
 11
12.5
 21
7.5
  0
LINE
  8
0
 10
12.5
 20
7.5
 11
7.5
 21
7.5
  0
LINE
  8
0
 10
-10.809
 20
9.4122
 11
-10.809
 21
10.5878
  0
LINE
  8
0
 10
-10.809
 20
10.5878
 11
-9.69098
 21
10.951
  0
LINE
  8
0
 10
-9.69098
 20
10.951
 11
-9
 21
10
  0
LINE
  8
0
 10
-9
 20
10
 11
-9.69098
 21
9.04893
  0
LINE
  8
0
 10
-9.69098
 20
9.04893
 11
-10.809
 21
9.4122
  0
LINE
  8
0
 10
46.635
 20
-24.0155
 11
45.76
 21
-22.5
  0
LINE
  8
0
 10
45.76
 20
-22.5
 11
46.635
 21
-20.9845
  0
LINE
  8
0
 10
46.635
 20
-20.9845
 11
48.385
 21
-20.9845
  0
LINE
  8
0
 10
48.385
 20
-20.9845
 11
49.26
 21
-22.5
  0
LINE
  8
0
 10
49.26
 20
-22.5
 11
48.385
 21
-24.0155
  0
LINE
  8
0
 10
48.385
 20
-24.0155
 11
46.635
 21
-24.0155
  0
LINE
  8
0
 10
-48.385
 20
-24.0155
 11
-49.26
 21
-22.5
  0
LINE
  8
0
 10
-49.26
 20
-22.5
 11
-48.385
 21
-20.9845
  0
LINE
  8
0
 10
-48.385
 20
-20.9845
 11
-46.635
 21
-20.9845
  0
LINE
  8
0
 10
-46.635
 20
-20.9845
 11
-45.76
 21
-22.5
  0
LINE
  8
0
 10
-45.76
 20
-22.5
 11
-46.635
 21
-24.0155
  0
LINE
  8
0
 10
-46.635
 20
-24.0155
 11
-48.385
 21
-24.0155
  0
ENDSEC
  0
SECTION
  2
OBJECTS
  0
DICTIONARY
  0
ENDSEC
  0
EOF
